<svg width="494" height="490" viewBox="0 0 494 490" fill="none" xmlns="http://www.w3.org/2000/svg">
<path d="M174.228 239.499C177.692 245.499 173.362 252.999 166.434 252.999L138.721 252.999C131.793 252.999 127.463 245.499 130.927 239.499L144.783 215.499C148.247 209.499 156.907 209.499 160.372 215.499L174.228 239.499Z" fill="#0C98BA"/>
<path d="M165.567 212.5C162.103 206.5 166.433 199 173.362 199L201.074 199C208.003 199 212.333 206.5 208.869 212.5L195.012 236.5C191.548 242.5 182.888 242.5 179.424 236.5L165.567 212.5Z" fill="#0C98BA"/>
<path d="M208.868 179.501C212.332 185.501 208.002 193.001 201.074 193.001L173.361 193.001C166.433 193.001 162.103 185.501 165.567 179.501L179.423 155.501C182.887 149.501 191.547 149.501 195.012 155.501L208.868 179.501Z" fill="#064E40"/>
<path d="M130.926 152.501C127.462 146.501 131.792 139.001 138.72 139.001L166.433 139.001C173.361 139.001 177.691 146.501 174.227 152.501L160.371 176.501C156.907 182.501 148.246 182.501 144.782 176.501L130.926 152.501Z" fill="#064E40"/>
<path d="M139.587 179.5C143.051 185.5 138.72 193 131.792 193L104.079 193C97.1513 193 92.8211 185.5 96.2852 179.5L110.142 155.5C113.606 149.5 122.266 149.5 125.73 155.5L139.587 179.5Z" fill="#064E40"/>
<path d="M96.2858 212.499C92.8217 206.499 97.1518 198.999 104.08 198.999L131.793 198.999C138.721 198.999 143.051 206.499 139.587 212.499L125.731 236.499C122.267 242.499 113.606 242.499 110.142 236.499L96.2858 212.499Z" fill="#064E40"/>
<path d="M61.6442 152.5C58.1801 146.5 62.5102 139 69.4384 139L97.1513 139C104.079 139 108.41 146.5 104.945 152.5L91.0891 176.5C87.625 182.5 78.9647 182.5 75.5006 176.5L61.6442 152.5Z" fill="#064E40"/>
<path d="M201.074 318.999C208.002 318.999 212.332 326.499 208.868 332.499L195.012 356.499C191.548 362.499 182.887 362.499 179.423 356.499L165.567 332.499C162.103 326.499 166.433 318.999 173.361 318.999L201.074 318.999Z" fill="#8DD8CC"/>
<path d="M173.362 313C166.433 313 162.103 305.5 165.567 299.5L179.424 275.5C182.888 269.5 191.548 269.5 195.012 275.5L208.869 299.5C212.333 305.5 208.003 313 201.074 313L173.362 313Z" fill="#8DD8CC"/>
<path d="M166.434 259.001C173.362 259.001 177.692 266.501 174.228 272.501L160.372 296.501C156.908 302.501 148.247 302.501 144.783 296.501L130.927 272.501C127.463 266.501 131.793 259.001 138.721 259.001L166.434 259.001Z" fill="#0C98BA"/>
<path d="M104.08 313.001C97.1518 313.001 92.8217 305.501 96.2858 299.501L110.142 275.501C113.606 269.501 122.267 269.501 125.731 275.501L139.587 299.501C143.051 305.501 138.721 313.001 131.793 313.001L104.08 313.001Z" fill="#0C98BA"/>
<path d="M131.792 319C138.721 319 143.051 326.5 139.587 332.5L125.73 356.5C122.266 362.5 113.606 362.5 110.142 356.5L96.2853 332.5C92.8212 326.5 97.1514 319 104.08 319L131.792 319Z" fill="#0C98BA"/>
<path d="M138.72 372.999C131.792 372.999 127.462 365.499 130.926 359.499L144.782 335.499C148.246 329.499 156.907 329.499 160.371 335.499L174.227 359.499C177.691 365.499 173.361 372.999 166.433 372.999L138.72 372.999Z" fill="#0C98BA"/>
<path d="M69.4385 373C62.5103 373 58.1802 365.5 61.6443 359.5L75.5007 335.5C78.9648 329.5 87.6251 329.5 91.0892 335.5L104.946 359.5C108.41 365.5 104.08 373 97.1514 373L69.4385 373Z" fill="#0C98BA"/>
<path d="M283.346 335.5C286.81 329.5 295.47 329.5 298.934 335.5L312.791 359.5C316.255 365.5 311.925 373 304.996 373L277.284 373C270.355 373 266.025 365.5 269.489 359.5L283.346 335.5Z" fill="#1164B4"/>
<path d="M264.294 356.5C260.83 362.5 252.17 362.5 248.706 356.5L234.849 332.5C231.385 326.5 235.715 319 242.644 319L270.356 319C277.285 319 281.615 326.5 278.151 332.5L264.294 356.5Z" fill="#1164B4"/>
<path d="M214.066 335.5C217.53 329.5 226.19 329.5 229.654 335.5L243.511 359.5C246.975 365.5 242.645 373 235.716 373L208.004 373C201.075 373 196.745 365.5 200.209 359.5L214.066 335.5Z" fill="#8DD8CC"/>
<path d="M229.654 416.5C226.19 422.5 217.53 422.5 214.066 416.5L200.209 392.5C196.745 386.5 201.075 379 208.004 379L235.716 379C242.645 379 246.975 386.5 243.511 392.5L229.654 416.5Z" fill="#8DD8CC"/>
<path d="M248.706 395.5C252.17 389.5 260.83 389.5 264.294 395.5L278.151 419.5C281.615 425.5 277.285 433 270.356 433L242.644 433C235.715 433 231.385 425.5 234.849 419.5L248.706 395.5Z" fill="#8DD8CC"/>
<path d="M298.934 416.5C295.47 422.5 286.81 422.5 283.346 416.5L269.489 392.5C266.025 386.5 270.355 379 277.284 379L304.996 379C311.925 379 316.255 386.5 312.791 392.5L298.934 416.5Z" fill="#8DD8CC"/>
<path d="M264.294 476.5C260.83 482.5 252.17 482.5 248.706 476.5L234.849 452.5C231.385 446.5 235.715 439 242.644 439L270.356 439C277.285 439 281.615 446.5 278.151 452.5L264.294 476.5Z" fill="#8DD8CC"/>
<path d="M338.772 272.501C335.308 266.501 339.638 259.001 346.566 259.001L374.279 259.001C381.207 259.001 385.537 266.501 382.073 272.501L368.217 296.501C364.753 302.501 356.093 302.501 352.628 296.501L338.772 272.501Z" fill="#0DAD8D"/>
<path d="M347.433 299.5C350.897 305.5 346.567 313 339.638 313L311.926 313C304.997 313 300.667 305.5 304.131 299.5L317.988 275.5C321.452 269.5 330.112 269.5 333.576 275.5L347.433 299.5Z" fill="#0DAD8D"/>
<path d="M304.132 332.499C300.668 326.499 304.998 318.999 311.926 318.999L339.639 318.999C346.567 318.999 350.897 326.499 347.433 332.499L333.577 356.499C330.113 362.499 321.453 362.499 317.988 356.499L304.132 332.499Z" fill="#1164B4"/>
<path d="M382.074 359.499C385.538 365.499 381.208 372.999 374.28 372.999L346.567 372.999C339.639 372.999 335.309 365.499 338.773 359.499L352.629 335.499C356.093 329.499 364.754 329.499 368.218 335.499L382.074 359.499Z" fill="#1164B4"/>
<path d="M373.413 332.5C369.949 326.5 374.28 319 381.208 319L408.921 319C415.849 319 420.179 326.5 416.715 332.5L402.858 356.5C399.394 362.5 390.734 362.5 387.27 356.5L373.413 332.5Z" fill="#1164B4"/>
<path d="M416.714 299.501C420.178 305.501 415.848 313.001 408.92 313.001L381.207 313.001C374.279 313.001 369.949 305.501 373.413 299.501L387.269 275.501C390.733 269.501 399.394 269.501 402.858 275.501L416.714 299.501Z" fill="#1164B4"/>
<path d="M451.356 359.5C454.82 365.5 450.49 373 443.562 373L415.849 373C408.921 373 404.59 365.5 408.055 359.5L421.911 335.5C425.375 329.5 434.035 329.5 437.499 335.5L451.356 359.5Z" fill="#1164B4"/>
<path d="M311.926 193.001C304.998 193.001 300.668 185.501 304.132 179.501L317.988 155.501C321.453 149.501 330.113 149.501 333.577 155.501L347.433 179.501C350.897 185.501 346.567 193.001 339.639 193.001L311.926 193.001Z" fill="#30BFBF"/>
<path d="M339.639 199C346.567 199 350.897 206.5 347.433 212.5L333.576 236.5C330.112 242.5 321.452 242.5 317.988 236.5L304.132 212.5C300.667 206.5 304.998 199 311.926 199L339.639 199Z" fill="#30BFBF"/>
<path d="M346.566 252.999C339.638 252.999 335.308 245.499 338.772 239.499L352.628 215.499C356.093 209.499 364.753 209.499 368.217 215.499L382.073 239.499C385.537 245.499 381.207 252.999 374.279 252.999L346.566 252.999Z" fill="#0DAD8D"/>
<path d="M408.92 198.999C415.848 198.999 420.178 206.499 416.714 212.499L402.858 236.499C399.394 242.499 390.733 242.499 387.269 236.499L373.413 212.499C369.949 206.499 374.279 198.999 381.207 198.999L408.92 198.999Z" fill="#0DAD8D"/>
<path d="M381.208 193C374.28 193 369.949 185.5 373.413 179.5L387.27 155.5C390.734 149.5 399.394 149.5 402.858 155.5L416.715 179.5C420.179 185.5 415.849 193 408.921 193L381.208 193Z" fill="#0DAD8D"/>
<path d="M374.28 139.001C381.208 139.001 385.538 146.501 382.074 152.501L368.218 176.501C364.754 182.501 356.093 182.501 352.629 176.501L338.773 152.501C335.309 146.501 339.639 139.001 346.567 139.001L374.28 139.001Z" fill="#0DAD8D"/>
<path d="M443.561 139C450.49 139 454.82 146.5 451.356 152.5L437.499 176.5C434.035 182.5 425.375 182.5 421.911 176.5L408.054 152.5C404.59 146.5 408.92 139 415.849 139L443.561 139Z" fill="#0DAD8D"/>
<path d="M229.654 176.5C226.19 182.5 217.53 182.5 214.066 176.5L200.209 152.5C196.745 146.5 201.075 139 208.004 139L235.716 139C242.645 139 246.975 146.5 243.511 152.5L229.654 176.5Z" fill="#064E40"/>
<path d="M248.706 155.5C252.17 149.5 260.83 149.5 264.294 155.5L278.151 179.5C281.615 185.5 277.285 193 270.356 193L242.644 193C235.715 193 231.385 185.5 234.849 179.5L248.706 155.5Z" fill="#064E40"/>
<path d="M298.934 176.5C295.47 182.5 286.81 182.5 283.346 176.5L269.489 152.5C266.025 146.5 270.355 139 277.284 139L304.996 139C311.925 139 316.255 146.5 312.791 152.5L298.934 176.5Z" fill="#30BFBF"/>
<path d="M283.346 95.5C286.81 89.5 295.47 89.5 298.934 95.5L312.791 119.5C316.255 125.5 311.925 133 304.996 133H277.284C270.355 133 266.025 125.5 269.489 119.5L283.346 95.5Z" fill="#30BFBF"/>
<path d="M264.294 116.5C260.83 122.5 252.17 122.5 248.706 116.5L234.849 92.5C231.385 86.5 235.715 79 242.644 79L270.356 79C277.285 79 281.615 86.5 278.151 92.5L264.294 116.5Z" fill="#30BFBF"/>
<path d="M214.066 95.5C217.53 89.5 226.19 89.5 229.654 95.5L243.511 119.5C246.975 125.5 242.645 133 235.716 133H208.004C201.075 133 196.745 125.5 200.209 119.5L214.066 95.5Z" fill="#30BFBF"/>
<path d="M248.706 35.5C252.17 29.5 260.83 29.5 264.294 35.5L278.151 59.5C281.615 65.5 277.285 73 270.356 73H242.644C235.715 73 231.385 65.5 234.849 59.5L248.706 35.5Z" fill="#30BFBF"/>
<circle cx="360.423" cy="316" r="9" transform="rotate(120 360.423 316)" fill="#0C98BA"/>
<circle cx="360.423" cy="196" r="9" transform="rotate(-120 360.423 196)" fill="#8DD8CC"/>
<circle cx="256.5" cy="136" r="9" transform="rotate(-180 256.5 136)" fill="#1164B4"/>
<circle cx="152.577" cy="196" r="9" transform="rotate(120 152.577 196)" fill="#0DAD8D"/>
<circle cx="152.577" cy="316" r="9" transform="rotate(-120 152.577 316)" fill="#30BFBF"/>
<circle cx="256.5" cy="376" r="9" transform="rotate(-180 256.5 376)" fill="#064E40"/>
<circle cx="291.232" cy="315.965" r="9" transform="rotate(120 291.232 315.965)" fill="#0C98BA"/>
<circle cx="325.832" cy="255.965" r="9" transform="rotate(60 325.832 255.965)" fill="#8DD8CC"/>
<circle cx="291.17" cy="196" r="9" transform="rotate(-180 291.17 196)" fill="#1164B4"/>
<circle cx="221.909" cy="196.036" r="9" transform="rotate(120 221.909 196.036)" fill="#0DAD8D"/>
<circle cx="187.309" cy="256.036" r="9" transform="rotate(60 187.309 256.036)" fill="#30BFBF"/>
<circle cx="221.97" cy="316" r="9" transform="rotate(-180 221.97 316)" fill="#064E40"/>
</svg>
